# xmcd
#
# Track frame offsets: 
#        150
#        14991
#        34011
#        51965
#        71959
#        88281
#        123196
#        140755
#        166291
#        187373
#        215630
#        241895
#        257745
#        280649
#
# Disc length: 3846 seconds
#
# Revision: 0
# Processed by: cddbd v1.5.2PL0 Copyright (c) Steve Scherf et al.
# Submitted via: ExactAudioCopy v1.3
#
DISCID=e00f040e
DTITLE=Ralph De Jongh and Hans Van Lier - Brainmood
DYEAR=2005
DGENRE=Chicago Blues
TTITLE0=Dust My Broom
TTITLE1=Preaching Blues
TTITLE2=Kansas City
TTITLE3=Terraplane Blues
TTITLE4=Satisfaction
TTITLE5=I Feel Like A Weasel
TTITLE6=Whiskey Don't Need It Anymore
TTITLE7=Brainmood
TTITLE8=Me And The Devil Blues
TTITLE9=Third Stone From The Sun
TTITLE10=Sweet Home Chigago
TTITLE11=Everybody Got To Go
TTITLE12=Boogie
TTITLE13=Amazing
EXTD=
EXTT0=
EXTT1=
EXTT2=
EXTT3=
EXTT4=
EXTT5=
EXTT6=
EXTT7=
EXTT8=
EXTT9=
EXTT10=
EXTT11=
EXTT12=
EXTT13=
PLAYORDER=
